# This file uses centimeters as units for non-parametric coordinates.

mtllib bb.mtl
g default
v -0.500000 0.000000 0.500000
v 0.500000 0.000000 0.500000
v -0.500000 2.000000 0.500000
v 0.500000 2.000000 0.500000
v -0.500000 2.000000 -0.500000
v 0.500000 2.000000 -0.500000
v -0.500000 0.000000 -0.500000
v 0.500000 0.000000 -0.500000
vt 0.966079 0.167472
vt 0.507520 0.003433
vt 0.561606 0.079949
vt 0.553391 0.932515
vt 0.528281 0.221782
vt 0.993554 0.511896
vt 0.514021 0.515578
vt 1.003086 0.948448
vt 0.514021 0.947525
vt 0.945968 0.947525
vt 0.985339 0.500568
vt 0.985339 0.932515
vt 0.534132 0.167472
vt 0.534132 0.599420
vt 0.945968 0.515578
vt 0.553391 0.500568
vt 0.528281 0.948448
vt 0.016629 0.003433
vt 1.003086 0.221782
vt 0.561606 0.511896
vt 0.507520 0.985523
vt 0.993554 0.079949
vt 0.016629 0.985523
vt 0.966079 0.599420
vn 0.000000 0.000000 1.000000
vn 0.000000 0.000000 1.000000
vn 0.000000 0.000000 1.000000
vn 0.000000 0.000000 1.000000
vn 0.000000 1.000000 0.000000
vn 0.000000 1.000000 0.000000
vn 0.000000 1.000000 0.000000
vn 0.000000 1.000000 0.000000
vn 0.000000 0.000000 -1.000000
vn 0.000000 0.000000 -1.000000
vn 0.000000 0.000000 -1.000000
vn 0.000000 0.000000 -1.000000
vn 0.000000 -1.000000 0.000000
vn 0.000000 -1.000000 0.000000
vn 0.000000 -1.000000 0.000000
vn 0.000000 -1.000000 0.000000
vn 1.000000 0.000000 0.000000
vn 1.000000 0.000000 0.000000
vn 1.000000 0.000000 0.000000
vn 1.000000 0.000000 0.000000
vn -1.000000 0.000000 0.000000
vn -1.000000 0.000000 0.000000
vn -1.000000 0.000000 0.000000
vn -1.000000 0.000000 0.000000
s off
g pCube1
usemtl lambert2SG
f 1/18/1 2/2/2 4/21/3 3/23/4
f 3/3/5 4/22/6 6/6/7 5/20/8
f 5/5/9 6/19/10 8/8/11 7/17/12
f 7/7/13 8/15/14 2/10/15 1/9/16
f 2/16/17 8/11/18 6/12/19 4/4/20
f 7/13/21 1/1/22 3/24/23 5/14/24
